HIERARCHY
ROOT Hips
{
	OFFSET -3.958830 18.904000 13.208200
	CHANNELS 6 Xposition Yposition Zposition Zrotation Yrotation Xrotation 
	JOINT LHipJoint
	{
		OFFSET 0.000000 0.000000 0.000000
		CHANNELS 3 Zrotation Yrotation Xrotation
		JOINT LeftUpLeg
		{
			OFFSET 1.800000 -1.400000 0.085000
			CHANNELS 3 Zrotation Yrotation Xrotation
			JOINT LeftLeg
			{
				OFFSET 2.215000 -6.000000 0.000000
				CHANNELS 3 Zrotation Yrotation Xrotation
				JOINT LeftFoot
				{
					OFFSET 2.500000 -6.900000 0.000000
					CHANNELS 3 Zrotation Yrotation Xrotation
					JOINT LeftToeBase
					{
						OFFSET 0.200000 -0.500000 1.950000
						CHANNELS 3 Zrotation Yrotation Xrotation
						End Site
						{
							OFFSET 0.000000 0.000000 0.000000
						}
					}
				}
			}
		}
	}
	JOINT RHipJoint
	{
		OFFSET 0.000000 0.000000 0.000000
		CHANNELS 3 Zrotation Yrotation Xrotation
		JOINT RightUpLeg
		{
			OFFSET -1.800000 -1.400000 0.085000
			CHANNELS 3 Zrotation Yrotation Xrotation
			JOINT RightLeg
			{
				OFFSET -2.215000 -6.000000 0.000000
				CHANNELS 3 Zrotation Yrotation Xrotation
				JOINT RightFoot
				{
					OFFSET -2.500000 -6.900000 0.000000
					CHANNELS 3 Zrotation Yrotation Xrotation
					JOINT RightToeBase
					{
						OFFSET -0.200000 -0.500000 1.950000
						CHANNELS 3 Zrotation Yrotation Xrotation
						End Site
						{
							OFFSET 0.000000 0.000000 0.000000
						}
					}
				}
			}
		}
	}
	JOINT LowerBack
	{
		OFFSET 0.000000 0.000000 0.000000
		CHANNELS 3 Zrotation Yrotation Xrotation
		JOINT Spine
		{
			OFFSET -0.087000 1.940000 -0.288900
			CHANNELS 3 Zrotation Yrotation Xrotation
			JOINT Spine1
			{
				OFFSET 0.000000 1.950000 0.060000
				CHANNELS 3 Zrotation Yrotation Xrotation
				JOINT Neck
				{
					OFFSET 0.000000 0.000000 0.000000
					CHANNELS 3 Zrotation Yrotation Xrotation
					JOINT Neck1
					{
						OFFSET 0.000000 1.600000 0.340000
						CHANNELS 3 Zrotation Yrotation Xrotation
						JOINT Head
						{
							OFFSET 0.000000 1.667000 -0.240000
							CHANNELS 3 Zrotation Yrotation Xrotation
							End Site
							{
								OFFSET 0.000000 0.000000 0.000000
							}
						}
					}
				}
				JOINT LeftShoulder
				{
					OFFSET 0.000000 0.000000 0.000000
					CHANNELS 3 Zrotation Yrotation Xrotation
					JOINT LeftArm
					{
						OFFSET 2.700000 1.550000 -0.730000
						CHANNELS 3 Zrotation Yrotation Xrotation
						JOINT LeftForeArm
						{
							OFFSET 5.450000 0.000000 0.000000
							CHANNELS 3 Zrotation Yrotation Xrotation
							JOINT LeftHand
							{
								OFFSET 3.450000 0.000000 0.000000
								CHANNELS 3 Zrotation Yrotation Xrotation
								JOINT LeftHandIndex1
								{
									OFFSET 0.750000 0.000000 0.000000
									CHANNELS 3 Zrotation Yrotation Xrotation
									End Site
									{
										OFFSET 0.000000 0.000000 0.000000
									}
								}
							}
						}
					}
				}
				JOINT RightShoulder
				{
					OFFSET 0.000000 0.000000 0.000000
					CHANNELS 3 Zrotation Yrotation Xrotation
					JOINT RightArm
					{
						OFFSET -2.700000 1.550000 -0.730000
						CHANNELS 3 Zrotation Yrotation Xrotation
						JOINT RightForeArm
						{
							OFFSET -5.450000 0.000000 0.000000
							CHANNELS 3 Zrotation Yrotation Xrotation
							JOINT RightHand
							{
								OFFSET -3.450000 0.000000 0.000000
								CHANNELS 3 Zrotation Yrotation Xrotation
								JOINT RightHandIndex1
								{
									OFFSET -0.750000 0.000000 0.000000
									CHANNELS 3 Zrotation Yrotation Xrotation
									End Site
									{
										OFFSET 0.000000 0.000000 0.000000
									}
								}
							}
						}
					}
				}
			}
		}
	}
}
MOTION
Frames: 9
Frame Time: 0.016667
0.784200 17.584310 0.459390 11.057596 54.772990 11.202958 -15.076988 11.007230 3.808719 -0.172817 -6.925708 -34.987127 -7.673742 5.535269 17.638827 -0.222885 3.154255 3.459361 -0.122760 -0.136640 -0.334260 18.463718 -11.283065 2.708583 -22.226882 3.169946 12.683027 2.264580 -5.734403 4.595398 -0.642876 -6.320361 2.300948 -0.032040 0.439740 0.135430 -5.187649 1.243654 -7.420440 12.975458 11.376293 2.018328 -9.356342 13.092384 6.304364 3.750231 -8.497350 -11.599039 -16.539227 1.828588 30.281490 -0.346600 -3.409980 0.237150 -18.795819 -7.308660 2.525859 -50.784857 -8.079566 -0.749467 -13.683092 -17.984086 1.014655 -3.925623 3.039341 0.002960 0.204340 -0.154940 0.171260 11.556743 17.477725 10.601788 34.398956 2.855725 -1.043580 43.520952 16.573828 3.144767 2.481766 -1.617058 -0.113380 0.165820 0.174720 0.164270 
0.852840 17.578480 0.424130 11.003651 55.287523 11.231723 -15.070606 11.058588 3.782933 -0.689971 -6.892061 -34.335686 -7.502866 5.532322 17.910307 -0.223705 3.154337 3.460512 -0.112180 -0.124680 -0.312890 18.459824 -11.338302 2.694081 -22.105121 3.243259 12.761839 1.841688 -5.711772 5.050269 -0.650369 -6.295266 2.309133 -0.027550 0.424200 0.138550 -5.265461 1.242527 -7.402696 13.754538 10.807838 1.928088 -10.109421 12.538076 6.161307 3.958884 -8.311733 -11.601957 -16.093147 1.912345 30.238048 -0.711760 -2.927420 -0.299260 -19.599573 -7.630810 2.736461 -49.928092 -7.034312 -0.724435 -15.036254 -16.027396 0.971201 -3.924631 3.030078 0.012500 0.199550 -0.139340 0.167080 11.835078 17.566729 10.419388 34.302243 3.749148 -1.017320 41.362686 20.200522 4.388676 2.467300 -1.592933 -0.110210 0.166300 0.166480 0.155450 
0.963640 17.589000 0.381600 11.211103 56.558476 11.072660 -15.093148 11.199705 3.776746 -1.788356 -6.918898 -33.090240 -6.952785 5.387925 18.131653 -0.226933 3.087297 3.480122 -0.110400 -0.128070 -0.288430 18.407096 -11.439595 2.651298 -21.896755 3.186984 13.077495 1.535292 -5.859654 6.452603 -0.657560 -6.273532 2.309625 -0.040280 0.389040 0.140330 -5.297097 1.124558 -7.410530 14.341067 9.693679 2.034007 -10.757488 11.424629 6.192816 4.371245 -7.663491 -11.997660 -15.013038 1.864292 31.213969 -1.042580 -2.515560 -0.617590 -20.508987 -8.990444 3.472435 -49.038665 -5.445909 -0.761878 -16.270901 -12.932255 0.698237 -3.902526 3.021080 0.037930 0.179830 -0.112900 0.152060 11.903198 18.421444 10.429773 33.225077 5.021510 -1.075947 38.648157 25.287648 5.978106 2.447447 -1.553918 -0.104360 0.153610 0.161330 0.139400 
1.109180 17.601930 0.345880 10.957657 57.223101 10.449328 -15.108512 11.357851 3.685664 -2.490292 -6.539827 -31.056447 -6.606048 4.995770 16.501242 -0.268357 2.874808 3.560015 -0.102250 -0.121800 -0.262830 18.359319 -11.596580 2.582617 -21.732118 3.074400 13.039435 1.322340 -6.072069 8.357710 -0.650033 -6.274001 2.297421 -0.036450 0.372710 0.155590 -5.326463 1.128453 -7.335562 14.615546 8.573094 1.745803 -11.145702 10.174653 6.606460 4.822430 -6.692548 -12.058847 -12.881476 2.065466 31.338269 -1.556390 -1.420250 -0.931410 -21.451582 -9.991716 4.305988 -48.740598 -3.605401 -1.297263 -15.322483 -12.167168 0.428012 -3.897258 3.025704 0.045210 0.186380 -0.100820 0.140000 11.899063 18.699749 9.932985 33.129744 7.525830 -1.018001 32.932036 30.902005 6.905910 2.398560 -1.523023 -0.101270 0.137350 0.158900 0.122250 
1.268810 17.625570 0.310070 10.325879 56.935880 9.392560 -15.129014 11.530500 3.552280 -2.546071 -5.915741 -28.563073 -7.286394 4.816109 14.233405 -0.307184 2.782128 3.603315 -0.081330 -0.099470 -0.231220 18.315393 -11.686466 2.494672 -21.910914 3.034569 12.746805 1.103834 -6.223120 9.978741 -0.643060 -6.265762 2.285172 -0.013640 0.366020 0.165190 -5.325760 1.034447 -7.220561 15.121315 7.238328 1.366233 -10.383512 8.538127 7.449808 4.937987 -6.694070 -11.936252 -12.526881 3.243347 30.788987 -2.141660 0.232240 -1.815770 -21.267729 -10.229205 5.171328 -50.559252 -2.137837 -2.011862 -13.370814 -13.512004 0.254864 -3.894671 3.024262 0.056970 0.193980 -0.091030 0.133510 11.566326 18.788669 9.066853 32.795459 10.906993 -1.051597 26.386117 36.685607 7.166222 2.323641 -1.503964 -0.108700 0.142330 0.156520 0.103180 
1.439900 17.674340 0.279290 9.640269 56.632513 7.866762 -15.160593 11.780027 3.468436 -2.378404 -5.219480 -25.657155 -8.269063 4.754279 12.070544 -0.303221 2.764896 3.607737 -0.059830 -0.075550 -0.182210 18.241407 -11.832494 2.331446 -22.113559 2.844339 12.046161 0.721923 -6.502527 13.083467 -0.637682 -6.213213 2.280431 -0.010900 0.320500 0.169860 -5.368235 0.860530 -7.151609 16.064731 5.535623 1.188619 -10.270160 6.583638 8.156755 5.229009 -6.263718 -12.198263 -11.786072 4.797399 32.181678 -2.710620 2.380760 -2.470840 -21.040811 -11.206145 6.342566 -51.578708 -0.087973 -2.538577 -13.499813 -12.266687 0.039430 -3.863778 3.009059 0.094550 0.172500 -0.046950 0.119130 10.759840 19.237955 8.427409 33.763700 13.984421 -1.482562 20.813890 42.003758 6.871264 2.264438 -1.483230 -0.103460 0.131880 0.139850 0.077620 
1.620170 17.728760 0.258190 8.710453 56.760187 6.300575 -15.210777 12.036132 3.430246 -2.003509 -4.612791 -23.316447 -9.012603 4.768187 10.548222 -0.305234 2.853746 3.584951 -0.072360 -0.103920 -0.138430 18.158491 -11.950790 2.151082 -21.720834 2.554403 11.361716 -0.150381 -6.643571 16.519230 -0.620365 -6.179105 2.272414 -0.025800 0.301620 0.179460 -5.357111 0.626323 -7.074225 16.810256 3.776729 1.094618 -9.947690 4.477188 8.335987 5.461267 -5.465921 -12.081774 -10.163544 6.102235 32.749483 -4.003150 4.996100 -2.495160 -21.659848 -11.610477 6.985125 -51.962870 2.173925 -2.787469 -15.482498 -8.082077 -0.400137 -3.892275 2.971452 0.123050 0.180620 -0.030810 0.090920 10.812355 18.620198 7.825639 35.499438 14.994276 -3.022897 16.223724 48.765199 6.281599 2.192375 -1.501290 -0.121310 0.121120 0.144930 0.039520 
1.803860 17.789670 0.236780 8.391663 56.657446 5.194341 -15.260711 12.322625 3.439612 -2.238619 -4.120341 -20.747818 -9.142201 4.663677 9.110449 -0.306407 2.937828 3.572816 -0.116630 -0.189600 -0.114040 18.074657 -12.056851 1.946431 -21.325492 2.316572 10.205605 -1.610030 -6.587995 20.460525 -0.594369 -6.133736 2.258568 -0.076320 0.297820 0.195020 -5.294022 0.292462 -7.014021 17.402733 2.276712 1.057432 -9.289389 2.673796 8.564051 5.502172 -4.999684 -12.475789 -9.394932 7.001900 33.599897 -5.037880 6.792100 -2.064980 -21.245143 -12.676478 7.714081 -52.761764 3.308720 -2.942111 -19.229685 -4.731437 -0.958520 -3.921190 2.950871 0.164360 0.182560 -0.024720 0.053770 10.301446 18.950656 7.946239 37.636055 15.078135 -5.005106 10.689234 54.519955 4.371846 2.122775 -1.484916 -0.146610 0.112120 0.179000 0.002360 
1.976240 17.868420 0.193350 7.308338 56.163001 3.225270 -15.295417 12.592974 3.435168 -2.461747 -3.594723 -18.384426 -8.532739 4.488445 8.144103 -0.306688 2.968259 3.566599 -0.124200 -0.213950 -0.105450 18.018331 -12.173712 1.742390 -20.299685 1.974411 8.281160 -3.362697 -6.277007 24.926230 -0.573887 -6.094880 2.247336 -0.091440 0.280220 0.197090 -5.340007 0.064295 -6.943494 18.985728 1.267481 1.356279 -7.932170 1.321920 9.069309 5.121913 -5.679994 -12.877597 -11.021366 7.384805 34.952361 -5.612640 6.820410 -1.984510 -19.863361 -13.646231 8.007921 -54.222419 1.935649 -2.246003 -22.387646 -2.427811 -1.379667 -3.928575 2.961296 0.189960 0.165150 -0.014070 0.038120 9.731157 20.068074 8.337440 38.892391 15.263552 -6.598468 3.770345 56.294309 1.093906 2.070497 -1.428778 -0.150060 0.111010 0.194840 -0.010500 
